<?xml version="1.0" standalone="no"?>
<!DOCTYPE svg PUBLIC "-//W3C//DTD SVG 20010904//EN"
 "http://www.w3.org/TR/2001/REC-SVG-20010904/DTD/svg10.dtd">
<svg version="1.0" xmlns="http://www.w3.org/2000/svg"
 width="1000.000000pt" height="1000.000000pt" viewBox="0 0 1000.000000 1000.000000"
 preserveAspectRatio="xMidYMid meet">
<metadata>
Created by potrace 1.11, written by Peter Selinger 2001-2013
</metadata>
<g transform="translate(0.000000,1000.000000) scale(0.100000,-0.100000)"
fill="#000000" stroke="none">
<path d="M4911 7130 c-261 -191 -509 -465 -658 -725 -85 -148 -179 -362 -209
-475 -20 -76 -45 -181 -49 -205 -3 -16 -8 -46 -12 -65 -3 -19 -7 -44 -9 -55
-8 -41 -18 -203 -17 -285 0 -86 12 -269 17 -279 2 -3 7 -30 10 -60 10 -86 60
-277 96 -366 5 -11 20 -51 35 -90 43 -113 186 -375 245 -449 6 -6 38 -47 72
-91 55 -71 103 -125 203 -229 90 -93 343 -296 368 -296 24 0 241 176 355 287
132 130 197 205 288 333 214 304 354 667 392 1020 14 137 7 438 -13 550 -3 14
-7 41 -10 60 -3 19 -11 53 -16 75 -6 22 -15 58 -21 80 -44 174 -150 418 -253
585 -158 254 -378 490 -636 683 -42 31 -80 57 -86 57 -5 0 -46 -27 -92 -60z"/>
<path d="M2687 6144 c-1 -1 -38 -5 -82 -8 -72 -6 -266 -33 -271 -39 -1 -1 -5
-22 -9 -47 -3 -25 -10 -72 -15 -105 -21 -145 -31 -456 -17 -540 3 -16 8 -57
12 -90 3 -33 10 -82 15 -110 6 -27 13 -61 15 -75 3 -14 8 -38 11 -55 12 -71
69 -249 110 -349 63 -151 198 -387 270 -473 11 -12 30 -37 44 -55 71 -93 216
-234 357 -348 13 -11 161 -110 208 -139 188 -119 560 -248 795 -276 25 -3 56
-8 70 -11 14 -3 120 -8 235 -10 l210 -5 -55 48 c-364 318 -624 706 -771 1148
-23 69 -20 56 -53 200 -14 61 -28 130 -31 155 -3 25 -8 56 -10 70 -16 91 -23
405 -11 495 2 17 7 59 11 95 4 36 16 108 26 160 37 174 38 162 -18 184 -26 10
-61 25 -78 32 -33 14 -209 70 -246 78 -39 9 -113 25 -134 29 -29 7 -95 17
-135 22 -19 2 -60 7 -90 11 -48 6 -357 13 -363 8z"/>
<path d="M6980 6138 c-36 -4 -90 -10 -120 -13 -171 -19 -489 -107 -608 -169
-37 -19 -36 -13 -18 -85 15 -55 18 -69 30 -141 25 -144 31 -221 31 -400 0
-169 -7 -274 -24 -370 -6 -30 -13 -71 -16 -90 -37 -221 -161 -542 -301 -776
-117 -197 -308 -428 -477 -579 -107 -95 -109 -97 -104 -102 5 -5 273 -4 332 2
469 42 870 198 1210 471 455 364 738 909 790 1519 7 82 7 347 0 415 -6 63 -24
195 -30 225 -2 11 -4 27 -4 37 -1 19 -73 34 -271 54 -91 9 -342 11 -420 2z"/>
<path d="M2080 4778 c-125 -52 -274 -133 -408 -222 -139 -91 -325 -243 -330
-268 -6 -33 129 -308 223 -453 231 -359 555 -651 907 -818 346 -165 705 -232
1083 -204 312 24 637 125 926 288 49 28 89 51 89 52 0 1 -44 2 -97 3 -187 1
-332 17 -542 59 -64 12 -195 49 -271 76 -47 16 -94 32 -105 34 -75 17 -472
239 -574 320 -268 216 -442 411 -599 675 -69 116 -165 319 -198 420 -10 30
-21 58 -24 62 -3 4 -39 -7 -80 -24z"/>
<path d="M7826 4763 c-10 -27 -21 -57 -26 -68 -5 -11 -23 -55 -40 -97 -72
-178 -225 -428 -356 -583 -95 -112 -242 -254 -343 -333 -47 -36 -88 -69 -91
-72 -14 -17 -231 -146 -317 -189 -217 -108 -493 -199 -683 -226 -25 -3 -67
-10 -95 -15 -71 -13 -212 -23 -337 -24 -60 0 -108 -1 -108 -2 0 -1 19 -13 43
-27 240 -141 514 -243 764 -287 730 -127 1453 124 1953 676 192 213 335 439
458 726 l20 47 -62 55 c-113 99 -287 227 -392 287 -77 44 -265 139 -275 139
-5 0 -29 9 -51 20 -23 11 -43 20 -44 20 0 0 -9 -21 -18 -47z"/>
</g>
</svg>
