<?xml version="1.0" standalone="no"?>
<!DOCTYPE svg PUBLIC "-//W3C//DTD SVG 20010904//EN"
 "http://www.w3.org/TR/2001/REC-SVG-20010904/DTD/svg10.dtd">
<svg version="1.0" xmlns="http://www.w3.org/2000/svg"
 width="1000.000000pt" height="1000.000000pt" viewBox="0 0 1000.000000 1000.000000"
 preserveAspectRatio="xMidYMid meet">
<metadata>
Created by potrace 1.11, written by Peter Selinger 2001-2013
</metadata>
<g transform="translate(0.000000,1000.000000) scale(0.100000,-0.100000)"
fill="#000000" stroke="none">
<path d="M4397 8649 c-21 -11 -42 -32 -48 -47 -9 -24 -7 -151 6 -282 2 -19 6
-75 10 -125 3 -49 8 -110 10 -135 2 -25 7 -83 10 -130 11 -155 15 -182 32
-210 23 -40 57 -55 117 -51 10 0 34 17 53 36 l35 35 -7 107 c-4 60 -8 119 -10
133 -2 14 -6 68 -10 120 -3 52 -8 115 -10 140 -6 63 -14 171 -20 263 -6 93
-25 134 -70 153 -44 18 -52 17 -98 -7z"/>
<path d="M5070 8282 c-34 -17 -54 -53 -63 -112 -4 -30 -12 -79 -32 -200 -17
-106 -24 -157 -22 -170 8 -40 21 -61 51 -80 69 -42 162 3 172 85 1 11 5 34 8
50 3 17 15 91 26 165 12 74 23 144 25 155 5 31 -20 81 -49 100 -35 23 -78 26
-116 7z"/>
<path d="M3813 8160 c-27 -11 -63 -66 -63 -96 0 -21 33 -105 88 -224 16 -36
42 -93 57 -128 16 -35 41 -74 57 -87 70 -59 178 -9 178 83 0 26 -68 193 -151
369 -39 84 -95 111 -166 83z"/>
<path d="M6063 7799 c-29 -8 -46 -25 -81 -75 -7 -11 -55 -81 -108 -157 -109
-157 -122 -194 -85 -246 28 -39 57 -54 99 -53 56 2 55 0 259 300 68 100 76
132 46 183 -13 22 -82 64 -96 58 -1 0 -16 -5 -34 -10z"/>
<path d="M6793 7560 c-27 -6 -78 -40 -263 -176 -25 -18 -110 -80 -190 -138
-80 -58 -154 -113 -165 -122 -11 -9 -29 -20 -41 -26 -11 -5 -28 -22 -37 -38
-42 -71 -1 -156 81 -167 42 -6 77 10 140 62 9 8 130 95 267 194 309 223 323
234 333 274 21 77 -49 153 -125 137z"/>
<path d="M5050 6858 c-169 -17 -319 -100 -427 -234 -138 -171 -143 -179 -143
-214 -1 -19 -1 -739 -1 -1599 -1 -1374 1 -1565 14 -1572 8 -5 25 -28 37 -51
57 -111 147 -195 234 -220 118 -33 326 23 439 118 25 21 46 29 70 25 152 -24
322 7 442 81 114 72 249 199 319 301 26 38 60 70 103 98 205 134 295 346 257
606 -14 92 -43 191 -80 269 -30 63 -30 92 -1 135 100 149 123 262 86 424 -27
122 -150 327 -279 465 -86 93 -91 112 -49 207 71 162 72 272 2 411 -43 86
-136 191 -237 266 -74 55 -179 119 -213 130 -31 10 -68 57 -92 117 -66 167
-256 261 -481 237z m163 -1555 c16 -8 57 -43 92 -78 l63 -63 63 65 c35 35 76
71 92 79 61 32 153 20 203 -27 64 -60 73 -219 17 -321 -34 -63 -371 -518 -383
-518 -10 0 -319 414 -368 492 -40 65 -52 106 -52 178 1 160 143 261 273 193z"/>
<path d="M3530 6853 c-131 -17 -234 -64 -297 -137 -63 -71 -72 -101 -78 -258
-9 -227 -12 -249 -44 -282 -55 -55 -155 -37 -182 32 -12 27 -14 176 -3 193 3
5 -2 9 -11 9 -9 0 -67 -51 -128 -112 -119 -120 -164 -190 -187 -293 -12 -56
-11 -151 3 -206 9 -36 9 -36 45 -28 147 34 410 -24 455 -100 21 -36 21 -64 1
-106 -17 -37 -66 -65 -104 -60 -14 2 -64 15 -112 29 -138 40 -233 29 -288 -34
-101 -116 -176 -224 -225 -325 -53 -112 -69 -177 -69 -291 1 -96 2 -103 40
-180 37 -75 42 -81 101 -112 102 -54 191 -82 279 -89 74 -5 86 -3 144 23 87
39 140 31 173 -25 41 -71 9 -140 -88 -185 -69 -33 -108 -40 -225 -39 -104 0
-193 19 -305 64 -38 16 -71 29 -72 29 -7 0 -44 -147 -50 -196 -20 -169 6 -300
85 -424 l35 -55 17 60 c33 119 92 217 141 234 42 15 104 -2 124 -33 33 -50 30
-89 -11 -162 -37 -65 -39 -74 -41 -165 -3 -112 8 -140 91 -236 l53 -61 21 36
c83 144 251 229 442 224 154 -3 252 -44 270 -111 13 -51 6 -82 -28 -114 -32
-31 -75 -36 -152 -19 -113 25 -193 17 -264 -29 -44 -27 -106 -107 -106 -136 0
-16 97 -62 180 -84 50 -14 92 -17 185 -14 l120 4 51 -33 c161 -107 321 -145
439 -106 77 25 185 131 221 217 8 17 22 38 32 45 18 13 19 65 19 1618 l0 1605
-66 85 c-147 188 -263 276 -417 314 -61 15 -170 25 -214 19z m491 -439 c31 -7
67 -18 80 -24 59 -28 84 -111 48 -161 -30 -42 -73 -50 -160 -29 -191 45 -321
-21 -384 -194 -28 -76 -64 -125 -93 -127 -9 0 -26 -2 -36 -4 -46 -9 -104 49
-108 107 -2 37 31 138 68 204 61 110 194 209 315 233 63 13 204 10 270 -5z
m82 -834 c33 -37 35 -81 7 -127 -18 -30 -105 -101 -171 -140 -26 -16 -27 -18
-26 -107 0 -93 -24 -195 -61 -256 -75 -125 -149 -203 -261 -278 -68 -45 -93
-56 -135 -60 -45 -4 -56 -1 -84 23 -19 16 -34 40 -38 61 -11 58 11 90 100 149
164 106 238 205 250 334 l4 43 -31 -6 c-18 -4 -68 -9 -113 -12 -63 -5 -87 -3
-111 10 -71 36 -85 111 -32 170 32 37 44 41 162 51 136 12 271 63 344 129 22
19 52 42 67 50 38 19 94 5 129 -34z m-1155 -414 c65 -6 164 -28 217 -48 36
-14 75 -56 76 -83 1 -11 2 -27 3 -35 4 -43 -57 -110 -100 -110 -13 0 -58 9
-101 21 -42 12 -88 23 -102 25 -37 6 -192 5 -220 0 -41 -9 -95 -28 -109 -39
-7 -5 -33 -7 -58 -4 -119 13 -147 155 -41 209 49 24 113 48 147 54 112 19 159
21 288 10z m916 -916 c32 -12 66 -65 66 -103 0 -15 -13 -53 -29 -85 -82 -164
-85 -258 -11 -338 48 -53 58 -92 33 -142 -40 -82 -132 -93 -203 -23 -133 132
-144 358 -27 591 47 94 103 126 171 100z"/>
<path d="M6830 6803 c-8 -2 -24 -9 -35 -13 -11 -5 -93 -41 -182 -79 -168 -71
-187 -83 -202 -124 -30 -80 35 -157 124 -147 24 2 250 96 352 146 77 38 95 64
86 124 -10 71 -78 115 -143 93z"/>
<path d="M6930 6053 c-34 -13 -358 -265 -367 -286 -15 -33 -9 -90 13 -120 19
-26 68 -47 110 -47 24 0 357 246 382 281 49 70 -11 181 -95 178 -15 0 -35 -3
-43 -6z"/>
<path d="M7560 5598 c-19 -5 -174 -54 -345 -109 -170 -55 -326 -105 -345 -111
-83 -25 -120 -66 -120 -133 0 -69 81 -123 148 -97 15 6 155 52 312 103 157 50
319 102 360 115 84 28 116 52 129 102 22 79 -55 151 -139 130z"/>
<path d="M7257 4764 c-1 -1 -42 -5 -92 -8 -222 -15 -253 -23 -280 -76 -21 -41
-19 -78 8 -117 36 -53 68 -58 282 -38 28 2 86 7 130 11 44 3 92 12 106 20 55
28 74 95 45 153 -25 47 -59 63 -132 59 -36 -1 -66 -3 -67 -4z"/>
<path d="M6875 3856 c-47 -21 -68 -51 -68 -95 0 -62 36 -105 96 -117 12 -2 65
-11 117 -19 52 -8 113 -17 135 -20 22 -4 56 -10 75 -14 43 -9 94 -5 121 9 48
26 67 101 38 149 -23 38 -59 56 -129 67 -30 4 -57 8 -60 9 -3 1 -32 5 -65 10
-33 5 -62 9 -65 10 -8 2 -101 16 -135 20 -16 3 -43 -2 -60 -9z"/>
<path d="M6664 3401 c-56 -34 -67 -126 -21 -169 19 -18 145 -88 492 -272 55
-29 132 -70 171 -91 39 -22 84 -39 100 -39 39 0 92 34 104 66 29 74 0 125
-101 178 -41 21 -170 90 -288 153 -343 184 -362 193 -395 193 -17 0 -45 -9
-62 -19z"/>
<path d="M6398 2908 c-72 -42 -78 -125 -13 -183 223 -200 301 -264 330 -271
54 -13 131 35 136 86 6 68 -9 88 -146 205 -73 63 -130 113 -149 131 -51 49
-108 61 -158 32z"/>
<path d="M5947 2476 c-41 -28 -62 -86 -47 -130 6 -17 31 -53 56 -81 25 -27 89
-98 142 -158 104 -116 133 -133 197 -116 59 17 96 94 71 151 -6 15 -42 61 -81
104 -38 43 -90 100 -115 128 -69 78 -111 116 -129 117 -9 1 -26 3 -39 4 -13 1
-37 -7 -55 -19z"/>
<path d="M5510 2253 c-72 -50 -73 -80 -4 -243 31 -74 66 -160 79 -190 46 -113
98 -236 116 -277 10 -23 19 -44 19 -47 0 -3 14 -35 30 -70 26 -54 37 -66 69
-80 61 -24 114 -7 145 46 12 20 16 40 12 60 -5 25 -94 244 -261 643 -62 151
-83 175 -144 175 -20 0 -48 -8 -61 -17z"/>
<path d="M5004 2067 c-66 -35 -83 -81 -65 -180 6 -34 13 -80 16 -102 3 -22 7
-47 10 -55 2 -8 6 -33 9 -55 11 -89 19 -121 38 -148 29 -40 75 -58 122 -47 63
14 91 66 80 150 -14 105 -22 160 -35 230 -5 30 -12 73 -15 95 -7 47 -25 79
-57 100 -30 19 -79 25 -103 12z"/>
</g>
</svg>
