<svg data-v-29081953="" xmlns="http://www.w3.org/2000/svg" viewBox="0 0 300 300"><!----><defs data-v-29081953=""><!----></defs><rect data-v-29081953="" fill="transparent" x="0" y="0" width="300px" height="300px" class="logo-background-square"></rect><defs data-v-29081953=""><!----></defs><g data-v-29081953="" id="dc91939b-5ae5-4d17-b863-ceb64a92e526" fill="#000000" transform="matrix(3.2386646270751953,0,0,3.2386646270751953,18.380667638556,168.0196815312199)"><path d="M3.93 14.52C5.38 14.52 6.43 13.89 6.92 12.49L5.31 11.79C5.10 12.38 4.76 12.89 3.93 12.89C3.09 12.89 2.66 12.29 2.66 11.37L2.66 10.00C2.66 9.07 3.09 8.47 3.93 8.47C4.66 8.47 5.07 8.92 5.19 9.48L6.87 8.75C6.44 7.55 5.42 6.83 3.93 6.83C1.72 6.83 0.50 8.32 0.50 10.67C0.50 13.02 1.72 14.52 3.93 14.52ZM11.12 14.52C13.27 14.52 14.56 13.03 14.56 10.67C14.56 8.30 13.27 6.83 11.12 6.83C8.96 6.83 7.67 8.30 7.67 10.67C7.67 13.03 8.96 14.52 11.12 14.52ZM11.12 12.88C10.30 12.88 9.83 12.35 9.83 11.42L9.83 9.93C9.83 9.00 10.30 8.47 11.12 8.47C11.93 8.47 12.40 9.00 12.40 9.93L12.40 11.42C12.40 12.35 11.93 12.88 11.12 12.88ZM18.10 14.35L18.10 9.59C18.10 8.86 18.76 8.51 19.43 8.51C20.19 8.51 20.45 8.97 20.45 9.91L20.45 14.35L22.53 14.35L22.53 9.74C22.53 7.90 21.73 6.83 20.23 6.83C19.07 6.83 18.45 7.48 18.19 8.25L18.10 8.25L18.10 7.00L16.03 7.00L16.03 14.35ZM26.87 14.52C28.76 14.52 30.02 13.48 30.02 12.07C30.02 10.79 29.19 10.07 27.59 9.86L26.77 9.74C26.17 9.66 26.00 9.45 26.00 9.06C26.00 8.69 26.28 8.44 26.98 8.44C27.59 8.44 28.21 8.74 28.67 9.20L29.86 7.98C29.12 7.25 28.41 6.83 26.87 6.83C25.12 6.83 24.01 7.81 24.01 9.23C24.01 10.56 24.82 11.28 26.49 11.49L27.29 11.59C27.80 11.66 28.03 11.84 28.03 12.21C28.03 12.64 27.75 12.91 26.94 12.91C26.14 12.91 25.51 12.54 24.99 11.97L23.77 13.20C24.53 14.04 25.45 14.52 26.87 14.52ZM34.40 14.52C35.84 14.52 36.89 13.89 37.38 12.49L35.77 11.79C35.56 12.38 35.22 12.89 34.40 12.89C33.56 12.89 33.12 12.29 33.12 11.37L33.12 10.00C33.12 9.07 33.56 8.47 34.40 8.47C35.13 8.47 35.53 8.92 35.66 9.48L37.34 8.75C36.90 7.55 35.88 6.83 34.40 6.83C32.19 6.83 30.97 8.32 30.97 10.67C30.97 13.02 32.19 14.52 34.40 14.52ZM39.70 6.22C40.54 6.22 40.91 5.78 40.91 5.19L40.91 4.89C40.91 4.30 40.54 3.86 39.70 3.86C38.86 3.86 38.50 4.30 38.50 4.89L38.50 5.19C38.50 5.78 38.86 6.22 39.70 6.22ZM38.67 14.35L40.74 14.35L40.74 7.00L38.67 7.00ZM45.65 14.52C47.81 14.52 49.10 13.03 49.10 10.67C49.10 8.30 47.81 6.83 45.65 6.83C43.50 6.83 42.21 8.30 42.21 10.67C42.21 13.03 43.50 14.52 45.65 14.52ZM45.65 12.88C44.84 12.88 44.37 12.35 44.37 11.42L44.37 9.93C44.37 9.00 44.84 8.47 45.65 8.47C46.47 8.47 46.94 9.00 46.94 9.93L46.94 11.42C46.94 12.35 46.47 12.88 45.65 12.88ZM54.91 14.35L56.98 14.35L56.98 7.00L54.91 7.00L54.91 11.77C54.91 12.47 54.25 12.84 53.61 12.84C52.85 12.84 52.56 12.33 52.56 11.44L52.56 7.00L50.48 7.00L50.48 11.62C50.48 13.47 51.28 14.52 52.78 14.52C53.98 14.52 54.59 13.86 54.84 13.12L54.91 13.12ZM61.40 14.52C63.29 14.52 64.55 13.48 64.55 12.07C64.55 10.79 63.73 10.07 62.13 9.86L61.31 9.74C60.70 9.66 60.54 9.45 60.54 9.06C60.54 8.69 60.82 8.44 61.52 8.44C62.13 8.44 62.75 8.74 63.21 9.20L64.40 7.98C63.66 7.25 62.94 6.83 61.40 6.83C59.65 6.83 58.55 7.81 58.55 9.23C58.55 10.56 59.36 11.28 61.03 11.49L61.82 11.59C62.34 11.66 62.57 11.84 62.57 12.21C62.57 12.64 62.29 12.91 61.47 12.91C60.68 12.91 60.05 12.54 59.53 11.97L58.31 13.20C59.07 14.04 59.99 14.52 61.40 14.52ZM67.06 14.50C67.90 14.50 68.29 14.03 68.29 13.38L68.29 13.10C68.29 12.46 67.90 11.98 67.06 11.98C66.22 11.98 65.83 12.46 65.83 13.10L65.83 13.38C65.83 14.03 66.22 14.50 67.06 14.50ZM73.19 14.35L73.19 12.74L72.27 12.74L72.27 3.99L70.20 3.99L70.20 12.33C70.20 13.64 70.84 14.35 72.25 14.35ZM77.77 10.43L77.22 12.56L77.14 12.56L76.61 10.43L75.53 7.00L73.47 7.00L76.05 14.73L75.80 15.54L74.41 15.54L74.41 17.15L75.70 17.15C76.96 17.15 77.57 16.62 77.95 15.48L80.78 7.00L78.85 7.00Z"></path></g><defs data-v-29081953=""><linearGradient data-v-29081953="" gradientTransform="rotate(25)" id="5c7a7d6f-b877-4a5c-91c4-acac676732a4" x1="0%" y1="0%" x2="100%" y2="0%"><stop data-v-29081953="" offset="0%" stop-color="#288642" stop-opacity="1"></stop><stop data-v-29081953="" offset="100%" stop-color="#27FDFD" stop-opacity="1"></stop></linearGradient></defs><g data-v-29081953="" id="f2cd392c-0cd6-44cb-bbc2-fd9568c02734" stroke="none" fill="url(#5c7a7d6f-b877-4a5c-91c4-acac676732a4)" transform="matrix(1.5132848024368286,0,0,1.5132848024368286,74.42125253124115,48.349139565611225)"><path d="M84.494 32.769c-6.481-1.252-13.045-.589-18.771 2.029a30.68 30.68 0 0 1 1.063 7.998c0 9.552-4.4 18.414-12.171 24.791 8.304.499 16.402-2.143 22.343-8.083 6.984-6.985 9.427-16.958 7.536-26.735z"></path><path d="M86.757 49.471c-1.496 4.631-4.017 8.841-7.516 12.338-5.86 5.86-13.905 9.107-22.653 9.107h-.001c-.388 0-.78-.013-1.172-.03 6.388 3.98 13.913 5.579 21.388 3.896 9.637-2.168 17.033-9.289 20.663-18.562-3.168-2.981-6.81-5.282-10.709-6.749zM43.299 70.916c-8.748 0-16.793-3.247-22.654-9.108-3.498-3.498-6.021-7.706-7.517-12.336-3.899 1.467-7.54 3.768-10.707 6.749 3.63 9.272 11.026 16.394 20.663 18.562 7.475 1.683 15 .084 21.386-3.896-.392.017-.783.029-1.171.029z"></path><path d="M33.174 42.795c0-2.727.362-5.396 1.054-7.969-5.742-2.642-12.33-3.315-18.837-2.058-1.89 9.777.553 19.75 7.538 26.734 5.957 5.957 14.084 8.599 22.411 8.079-7.767-6.375-12.166-15.235-12.166-24.786z"></path><path d="M36.406 42.795c0 9.878 5.324 18.657 13.574 24.235 8.25-5.578 13.574-14.356 13.574-24.235S58.23 24.138 49.98 18.561c-8.25 5.578-13.574 14.355-13.574 24.234z"></path></g><!----></svg>