<svg data-v-d3f97b9e="" xmlns="http://www.w3.org/2000/svg" viewBox="0 0 476 109"><!----><!----><!----><g data-v-d3f97b9e="" id="f8f3b9e9-93ee-4ab4-ab14-976488db3057" fill="#303A22" transform="matrix(4.535147190093994,0,0,4.535147190093994,96.39197540283203,-12.698410987854004)"><path d="M4.26 5.88L4.26 5.88Q5.31 5.88 6.03 6.36L6.03 6.36L6.03 6.36Q6.75 6.85 7.15 7.74L7.15 7.74L6.09 8.25L6.09 8.25Q5.64 6.86 4.23 6.86L4.23 6.86L4.23 6.86Q3.18 6.86 2.58 7.57L2.58 7.57L2.58 7.57Q1.99 8.27 1.99 9.52L1.99 9.52L1.99 9.52Q1.99 10.77 2.58 11.47L2.58 11.47L2.58 11.47Q3.18 12.18 4.23 12.18L4.23 12.18L4.23 12.18Q5.04 12.18 5.54 11.81L5.54 11.81L5.54 11.81Q6.03 11.44 6.19 10.74L6.19 10.74L7.22 11.10L7.22 11.10Q6.86 12.08 6.10 12.62L6.10 12.62L6.10 12.62Q5.35 13.16 4.26 13.16L4.26 13.16L4.26 13.16Q2.67 13.16 1.77 12.19L1.77 12.19L1.77 12.19Q0.87 11.23 0.87 9.52L0.87 9.52L0.87 9.52Q0.87 7.81 1.77 6.85L1.77 6.85L1.77 6.85Q2.67 5.88 4.26 5.88L4.26 5.88ZM12.15 5.88L12.15 5.88Q13.73 5.88 14.64 6.85L14.64 6.85L14.64 6.85Q15.54 7.81 15.54 9.52L15.54 9.52L15.54 9.52Q15.54 11.23 14.64 12.19L14.64 12.19L14.64 12.19Q13.73 13.16 12.15 13.16L12.15 13.16L12.15 13.16Q10.57 13.16 9.67 12.19L9.67 12.19L9.67 12.19Q8.76 11.23 8.76 9.52L8.76 9.52L8.76 9.52Q8.76 7.81 9.67 6.85L9.67 6.85L9.67 6.85Q10.57 5.88 12.15 5.88L12.15 5.88ZM12.15 6.85L12.15 6.85Q11.09 6.85 10.49 7.56L10.49 7.56L10.49 7.56Q9.88 8.27 9.88 9.52L9.88 9.52L9.88 9.52Q9.88 10.77 10.49 11.48L10.49 11.48L10.49 11.48Q11.09 12.19 12.15 12.19L12.15 12.19L12.15 12.19Q13.22 12.19 13.82 11.48L13.82 11.48L13.82 11.48Q14.42 10.77 14.42 9.52L14.42 9.52L14.42 9.52Q14.42 8.27 13.82 7.56L13.82 7.56L13.82 7.56Q13.22 6.85 12.15 6.85L12.15 6.85ZM21.11 5.88L21.11 5.88Q22.30 5.88 23.07 6.57L23.07 6.57L23.07 6.57Q23.84 7.25 23.84 8.54L23.84 8.54L23.84 13.02L22.72 13.02L22.72 8.93L22.72 8.93Q22.72 7.84 22.25 7.35L22.25 7.35L22.25 7.35Q21.78 6.86 21 6.86L21 6.86L21 6.86Q20.44 6.86 19.95 7.10L19.95 7.10L19.95 7.10Q19.46 7.35 19.15 7.90L19.15 7.90L19.15 7.90Q18.83 8.46 18.83 9.30L18.83 9.30L18.83 13.02L17.71 13.02L17.71 6.02L18.69 6.02L18.76 7.11L18.76 7.11Q19.11 6.48 19.73 6.18L19.73 6.18L19.73 6.18Q20.34 5.88 21.11 5.88L21.11 5.88ZM28.76 13.16L28.76 13.16Q27.75 13.16 26.94 12.76L26.94 12.76L26.94 12.76Q26.12 12.36 25.75 11.58L25.75 11.58L26.66 10.95L26.66 10.95Q26.89 11.56 27.48 11.87L27.48 11.87L27.48 11.87Q28.07 12.18 28.87 12.18L28.87 12.18L28.87 12.18Q29.69 12.18 30.13 11.89L30.13 11.89L30.13 11.89Q30.56 11.59 30.56 11.14L30.56 11.14L30.56 11.14Q30.56 10.74 30.16 10.49L30.16 10.49L30.16 10.49Q29.75 10.25 28.73 10.07L28.73 10.07L28.73 10.07Q27.72 9.88 27.13 9.63L27.13 9.63L27.13 9.63Q26.54 9.37 26.28 8.97L26.28 8.97L26.28 8.97Q26.01 8.57 26.01 7.98L26.01 7.98L26.01 7.98Q26.01 7.41 26.35 6.93L26.35 6.93L26.35 6.93Q26.68 6.45 27.31 6.17L27.31 6.17L27.31 6.17Q27.94 5.88 28.77 5.88L28.77 5.88L28.77 5.88Q29.89 5.88 30.57 6.29L30.57 6.29L30.57 6.29Q31.25 6.71 31.54 7.56L31.54 7.56L30.59 8.12L30.59 8.12Q30.37 7.45 29.91 7.15L29.91 7.15L29.91 7.15Q29.46 6.86 28.77 6.86L28.77 6.86L28.77 6.86Q28.08 6.86 27.61 7.17L27.61 7.17L27.61 7.17Q27.13 7.48 27.13 7.88L27.13 7.88L27.13 7.88Q27.13 8.34 27.55 8.60L27.55 8.60L27.55 8.60Q27.96 8.85 29.02 9.03L29.02 9.03L29.02 9.03Q30.48 9.27 31.08 9.74L31.08 9.74L31.08 9.74Q31.68 10.22 31.68 11.09L31.68 11.09L31.68 11.09Q31.68 11.69 31.33 12.16L31.33 12.16L31.33 12.16Q30.97 12.63 30.30 12.89L30.30 12.89L30.30 12.89Q29.64 13.16 28.76 13.16L28.76 13.16ZM36.71 5.88L36.71 5.88Q37.76 5.88 38.48 6.36L38.48 6.36L38.48 6.36Q39.20 6.85 39.61 7.74L39.61 7.74L38.54 8.25L38.54 8.25Q38.09 6.86 36.68 6.86L36.68 6.86L36.68 6.86Q35.63 6.86 35.03 7.57L35.03 7.57L35.03 7.57Q34.44 8.27 34.44 9.52L34.44 9.52L34.44 9.52Q34.44 10.77 35.03 11.47L35.03 11.47L35.03 11.47Q35.63 12.18 36.68 12.18L36.68 12.18L36.68 12.18Q37.49 12.18 37.99 11.81L37.99 11.81L37.99 11.81Q38.49 11.44 38.64 10.74L38.64 10.74L39.68 11.10L39.68 11.10Q39.31 12.08 38.56 12.62L38.56 12.62L38.56 12.62Q37.80 13.16 36.71 13.16L36.71 13.16L36.71 13.16Q35.13 13.16 34.22 12.19L34.22 12.19L34.22 12.19Q33.32 11.23 33.32 9.52L33.32 9.52L33.32 9.52Q33.32 7.81 34.22 6.85L34.22 6.85L34.22 6.85Q35.13 5.88 36.71 5.88L36.71 5.88ZM42.21 4.68L42.21 4.68Q41.83 4.68 41.60 4.44L41.60 4.44L41.60 4.44Q41.37 4.21 41.37 3.84L41.37 3.84L41.37 3.84Q41.37 3.46 41.60 3.23L41.60 3.23L41.60 3.23Q41.83 3.00 42.21 3.00L42.21 3.00L42.21 3.00Q42.59 3.00 42.82 3.23L42.82 3.23L42.82 3.23Q43.05 3.46 43.05 3.84L43.05 3.84L43.05 3.84Q43.05 4.21 42.82 4.44L42.82 4.44L42.82 4.44Q42.59 4.68 42.21 4.68L42.21 4.68ZM42.77 6.02L42.77 13.02L41.65 13.02L41.65 6.02L42.77 6.02ZM48.33 5.88L48.33 5.88Q49.91 5.88 50.81 6.85L50.81 6.85L50.81 6.85Q51.72 7.81 51.72 9.52L51.72 9.52L51.72 9.52Q51.72 11.23 50.81 12.19L50.81 12.19L50.81 12.19Q49.91 13.16 48.33 13.16L48.33 13.16L48.33 13.16Q46.75 13.16 45.84 12.19L45.84 12.19L45.84 12.19Q44.94 11.23 44.94 9.52L44.94 9.52L44.94 9.52Q44.94 7.81 45.84 6.85L45.84 6.85L45.84 6.85Q46.75 5.88 48.33 5.88L48.33 5.88ZM48.33 6.85L48.33 6.85Q47.26 6.85 46.66 7.56L46.66 7.56L46.66 7.56Q46.06 8.27 46.06 9.52L46.06 9.52L46.06 9.52Q46.06 10.77 46.66 11.48L46.66 11.48L46.66 11.48Q47.26 12.19 48.33 12.19L48.33 12.19L48.33 12.19Q49.39 12.19 49.99 11.48L49.99 11.48L49.99 11.48Q50.60 10.77 50.60 9.52L50.60 9.52L50.60 9.52Q50.60 8.27 49.99 7.56L49.99 7.56L49.99 7.56Q49.39 6.85 48.33 6.85L48.33 6.85ZM58.83 6.02L59.95 6.02L59.95 13.02L58.97 13.02L58.90 11.96L58.90 11.96Q58.20 13.16 56.39 13.16L56.39 13.16L56.39 13.16Q55.26 13.16 54.54 12.53L54.54 12.53L54.54 12.53Q53.82 11.90 53.82 10.60L53.82 10.60L53.82 6.02L54.94 6.02L54.94 10.30L54.94 10.30Q54.94 11.33 55.36 11.75L55.36 11.75L55.36 11.75Q55.78 12.18 56.59 12.18L56.59 12.18L56.59 12.18Q57.55 12.18 58.19 11.59L58.19 11.59L58.19 11.59Q58.83 11.00 58.83 9.83L58.83 9.83L58.83 6.02ZM64.93 13.16L64.93 13.16Q63.92 13.16 63.11 12.76L63.11 12.76L63.11 12.76Q62.30 12.36 61.92 11.58L61.92 11.58L62.83 10.95L62.83 10.95Q63.07 11.56 63.66 11.87L63.66 11.87L63.66 11.87Q64.25 12.18 65.04 12.18L65.04 12.18L65.04 12.18Q65.87 12.18 66.30 11.89L66.30 11.89L66.30 11.89Q66.74 11.59 66.74 11.14L66.74 11.14L66.74 11.14Q66.74 10.74 66.33 10.49L66.33 10.49L66.33 10.49Q65.93 10.25 64.90 10.07L64.90 10.07L64.90 10.07Q63.90 9.88 63.31 9.63L63.31 9.63L63.31 9.63Q62.72 9.37 62.45 8.97L62.45 8.97L62.45 8.97Q62.19 8.57 62.19 7.98L62.19 7.98L62.19 7.98Q62.19 7.41 62.52 6.93L62.52 6.93L62.52 6.93Q62.86 6.45 63.49 6.17L63.49 6.17L63.49 6.17Q64.12 5.88 64.95 5.88L64.95 5.88L64.95 5.88Q66.07 5.88 66.75 6.29L66.75 6.29L66.75 6.29Q67.42 6.71 67.72 7.56L67.72 7.56L66.77 8.12L66.77 8.12Q66.54 7.45 66.09 7.15L66.09 7.15L66.09 7.15Q65.63 6.86 64.95 6.86L64.95 6.86L64.95 6.86Q64.26 6.86 63.78 7.17L63.78 7.17L63.78 7.17Q63.31 7.48 63.31 7.88L63.31 7.88L63.31 7.88Q63.31 8.34 63.72 8.60L63.72 8.60L63.72 8.60Q64.13 8.85 65.20 9.03L65.20 9.03L65.20 9.03Q66.65 9.27 67.26 9.74L67.26 9.74L67.26 9.74Q67.86 10.22 67.86 11.09L67.86 11.09L67.86 11.09Q67.86 11.69 67.50 12.16L67.50 12.16L67.50 12.16Q67.14 12.63 66.48 12.89L66.48 12.89L66.48 12.89Q65.81 13.16 64.93 13.16L64.93 13.16ZM70.49 11.34L70.49 11.34Q70.90 11.34 71.15 11.59L71.15 11.59L71.15 11.59Q71.40 11.84 71.40 12.25L71.40 12.25L71.40 12.25Q71.40 12.66 71.15 12.91L71.15 12.91L71.15 12.91Q70.90 13.16 70.49 13.16L70.49 13.16L70.49 13.16Q70.08 13.16 69.83 12.91L69.83 12.91L69.83 12.91Q69.58 12.66 69.58 12.25L69.58 12.25L69.58 12.25Q69.58 11.84 69.83 11.59L69.83 11.59L69.83 11.59Q70.08 11.34 70.49 11.34L70.49 11.34ZM74.72 2.80L74.72 11.14L74.72 11.14Q74.72 11.68 74.88 11.88L74.88 11.88L74.88 11.88Q75.04 12.08 75.47 12.08L75.47 12.08L75.47 12.08Q75.77 12.08 75.98 12.04L75.98 12.04L75.98 12.04Q76.20 12.00 76.50 11.89L76.50 11.89L76.31 12.96L76.31 12.96Q75.85 13.16 75.28 13.16L75.28 13.16L75.28 13.16Q74.42 13.16 74.01 12.70L74.01 12.70L74.01 12.70Q73.60 12.24 73.60 11.28L73.60 11.28L73.60 2.80L74.72 2.80ZM83.54 6.02L80.25 14.20L80.25 14.20Q79.84 15.20 79.34 15.62L79.34 15.62L79.34 15.62Q78.83 16.03 78.04 16.03L78.04 16.03L78.04 16.03Q77.50 16.03 77.15 15.89L77.15 15.89L77.15 15.89Q76.79 15.75 76.50 15.44L76.50 15.44L76.89 14.49L76.89 14.49Q77.29 15.05 78.02 15.05L78.02 15.05L78.02 15.05Q78.43 15.05 78.74 14.80L78.74 14.80L78.74 14.80Q79.06 14.56 79.30 13.92L79.30 13.92L79.66 13.01L76.73 6.02L78.01 6.02L79.76 10.58L80.19 11.83L80.70 10.44L82.33 6.02L83.54 6.02Z"></path></g><linearGradient data-v-d3f97b9e="" gradientTransform="rotate(25)" id="a6776016-2ae9-487e-b180-afe61c02a461" x1="0%" y1="0%" x2="100%" y2="0%"><stop data-v-d3f97b9e="" offset="0%" style="stop-color: rgb(107, 227, 113); stop-opacity: 1;"></stop><stop data-v-d3f97b9e="" offset="100%" style="stop-color: rgb(208, 160, 112); stop-opacity: 1;"></stop></linearGradient><g data-v-d3f97b9e="" id="244b828e-032f-4d95-a004-b5198e085fbc" transform="matrix(1.100106120109558,0,0,1.100106120109558,0.8288416862487793,0.5404491424560547)" stroke="none" fill="url(#a6776016-2ae9-487e-b180-afe61c02a461)"><style>.st0{stroke:#fff;stroke-width:1.5;stroke-linecap:round;stroke-linejoin:round;stroke-miterlimit:10}</style><path d="M29.9 13.5h.1c.8-.1 1.5-.8 1.4-1.6l-.8-10.5c0-.8-.8-1.5-1.6-1.4-.8.1-1.5.8-1.4 1.6l.8 10.4c.1.9.7 1.5 1.5 1.5zM37.4 13c.7 0 1.4-.5 1.5-1.3l.8-5c.1-.8-.4-1.6-1.3-1.7-.8-.1-1.6.4-1.7 1.3l-.8 5c-.1.8.4 1.6 1.3 1.7h.2zM23.3 14.4c.2 0 .4 0 .6-.1.8-.3 1.1-1.2.8-2l-2.1-4.7c-.3-.8-1.3-1.1-2-.8-.8.3-1.1 1.2-.8 2l2.1 4.7c.3.6.8.9 1.4.9zM61.6 47.6c.2 0 .3 0 .5-.1l9.9-3.2c.8-.3 1.2-1.1 1-1.9-.3-.8-1.1-1.2-1.9-1l-9.9 3.2c-.8.3-1.2 1.1-1 1.9.2.7.8 1.1 1.4 1.1zM63.4 56.1h.1l5-.4c.8-.1 1.5-.8 1.4-1.7-.1-.8-.8-1.5-1.7-1.4l-5 .4c-.8.1-1.5.8-1.4 1.7.1.8.8 1.4 1.6 1.4zM59.1 41.4c.3 0 .7-.1.9-.3l4.1-3.1c.7-.5.8-1.5.3-2.2-.5-.7-1.5-.8-2.2-.3l-4.1 3.1c-.7.5-.8 1.5-.3 2.2.4.4.9.6 1.3.6zM48.2 99c.2 0 .4 0 .6-.1.8-.3 1.2-1.2.8-2l-4-9.6c-.3-.8-1.2-1.2-2-.8-.8.3-1.2 1.2-.8 2l4 9.6c.2.5.8.9 1.4.9zM38 97.1h.2c.8-.1 1.4-.9 1.3-1.8l-.8-5c-.1-.8-.9-1.4-1.8-1.3-.8.1-1.4.9-1.3 1.8l.8 5c.2.8.9 1.3 1.6 1.3zM53.6 90.2c.4 0 .7-.1 1-.4.6-.6.7-1.5.1-2.2l-3.4-3.8c-.6-.6-1.5-.7-2.2-.1-.6.6-.7 1.5-.1 2.2l3.4 3.8c.3.4.8.5 1.2.5zM69 78.8c.6 0 1.1-.3 1.4-.8.4-.7.1-1.7-.6-2.1L60.6 71c-.8-.4-1.7-.1-2.1.6-.4.7-.1 1.7.6 2.1l9.2 4.9c.2.2.5.2.7.2zM60 83.9c.4 0 .9-.2 1.2-.5.6-.6.5-1.6-.2-2.2l-3.8-3.3c-.6-.6-1.6-.5-2.2.1-.6.6-.5 1.6.2 2.2l3.8 3.3c.3.3.7.4 1 .4zM67.5 68.6c.7 0 1.4-.5 1.5-1.3.1-.8-.5-1.6-1.3-1.7l-5.1-.8c-.8-.1-1.6.5-1.7 1.3-.1.8.5 1.6 1.3 1.7l5.1.8h.2zM52.6 24c.3 0 .6-.1.9-.3l8.4-6.1c.7-.5.8-1.5.3-2.1-.5-.7-1.5-.8-2.1-.3l-8.4 6.1c-.7.5-.8 1.5-.3 2.1.3.4.8.6 1.2.6zM57 30.1c.2 0 .4 0 .6-.1l4.7-2c.8-.3 1.1-1.2.8-2-.3-.8-1.2-1.1-2-.8l-4.7 2c-.8.3-1.1 1.2-.8 2 .2.6.8.9 1.4.9zM48.4 18.9c.5 0 1-.2 1.3-.7l2.9-4.2c.5-.7.3-1.7-.4-2.1-.7-.5-1.7-.3-2.1.4l-2.9 4.2c-.5.7-.3 1.7.4 2.1.2.2.5.3.8.3zM.8 58c-.8 2.1-1.6 6 1 9.1.3-2.2 1.5-3.5 1.5-3.6.6-.6 1.5-.6 2.1-.1.6.6.7 1.5.1 2.2 0 0-1.2 1.4-.5 4.2.2.4.9 1.2 1.8 2.2.6-1.2 1.5-2.1 2.6-2.7 2.9-1.6 6.3-.4 6.4-.3.8.3 1.2 1.2.9 2-.3.8-1.2 1.2-2 .9 0 0-2.2-.8-3.9.2-.7.4-1.2 1-1.6 2 1.6 1 3.6 1.6 5.9 1.2.4-.1.9 0 1.2.3 0 0 3 2.3 5.7 1.7 1.4-.3 2.6-1.4 3.5-3.2.1-.3.4-.5.6-.6V30.1l-2-2.5c-1.9-2.4-5.2-3.6-8.2-3-2.2.4-3.6 1.6-4.2 3.4l-.2 4.6c0 .8-.7 1.5-1.5 1.5h-.1c-.8 0-1.5-.8-1.5-1.6l.1-2.2c-1.5 1.2-3.5 2.9-4.2 5-.4 1.3-.4 2.5 0 3.9 1.3-.4 3.2-.5 5.9.6.8.3 1.2 1.2.8 2-.2.6-.8.9-1.4.9-.2 0-.4 0-.6-.1-3-1.2-4.3-.4-4.4-.3-.3.3-7.2 7-3.3 12.3 1.4.8 4.8 2.5 6.7 1.2.7-.5 1.7-.3 2.1.4.5.7.3 1.7-.4 2.1-1.1.8-2.3 1-3.5 1-2.1.1-4-.7-5.4-1.3zm22.5-24.6s-2.2-.8-3.9.2c-.9.5-1.5 1.5-1.9 2.9-.2.7-.8 1.2-1.5 1.2h-.3c-.8-.2-1.3-1-1.2-1.8.5-2.3 1.7-4 3.4-4.9 2.9-1.6 6.3-.4 6.4-.3.8.3 1.2 1.2.9 2-.2.6-1.1 1-1.9.7zm-4 26.8c.5-.7 1.4-.9 2.1-.5.7.5.9 1.4.5 2.1 0 0-2.2 3.5-.3 5 .7.5.8 1.5.2 2.2-.3.4-.7.6-1.2.6-.3 0-.7-.1-1-.3-3.1-2.7-1.6-7-.3-9.1zm-4.4-8.3s4.1-2 3.9-5.4c-.8.2-1.8.3-2.8.3-.8 0-1.5-.7-1.5-1.5s.7-1.5 1.5-1.6c4.3-.1 6-1.9 6.1-2.1.5-.6 1.5-.7 2.1-.2.7.5.8 1.5.2 2.2-.1.1-.9 1-2.6 1.9.8 4.8-3.2 8.1-5.6 9.2-.2.1-.4.1-.7.1-.6 0-1.1-.3-1.4-.9-.3-.7 0-1.6.8-2zm-4.1-1c-4-1.4-6.3-.1-6.4-.1-.2.2-.5.2-.8.2-.5 0-1-.3-1.3-.7-.5-.7-.2-1.7.5-2.1.1-.1 3.4-2.1 9-.3.8.3 1.2 1.1 1 1.9-.3 1-1.2 1.4-2 1.1zM54.3 54.8c4.3-5.4-2.9-12.2-3.2-12.5-.5-.5-.6-1.2-.3-1.8 1-1.8 1.2-3.6.6-5.2-1.4-3.9-6.6-6.2-6.6-6.2-.4-.2-.7-.5-.9-1-.6-2-2-3.1-4.2-3.6-3.1-.6-6.4.6-8.2 3l-2 2.5v43.2c.3.1.5.3.6.6.9 1.8 2.1 2.9 3.5 3.2 2.7.6 5.7-1.6 5.7-1.7.4-.3.8-.4 1.2-.3 6 1.2 10.3-5.5 10.3-5.6.1-.2.3-.4.5-.5 7.2-4.1 3-12.2 2.8-12.6-.3-.3-.2-1 .2-1.5zm-8-4.2l-4.9 6.6-4.9-6.6c-.9-1.3-1.1-3-.3-4.3.8-1.4 2.6-1.6 3.8-.5l1.5 1.5 1.5-1.5c1.1-1.1 3-.9 3.8.5.5 1.3.4 3-.5 4.3z"></path></g><!----><g data-v-d3f97b9e="" id="d109d844-87b6-4368-879f-e3eed77f7730" fill="#444e36" transform="matrix(1.7221893072128296,0,0,1.7221893072128296,98.83922576904297,55.1778678894043)"><path d="M4.26 5.88L4.26 5.88Q5.31 5.88 6.03 6.36L6.03 6.36L6.03 6.36Q6.75 6.85 7.15 7.74L7.15 7.74L6.09 8.25L6.09 8.25Q5.64 6.86 4.23 6.86L4.23 6.86L4.23 6.86Q3.18 6.86 2.58 7.57L2.58 7.57L2.58 7.57Q1.99 8.27 1.99 9.52L1.99 9.52L1.99 9.52Q1.99 10.77 2.58 11.47L2.58 11.47L2.58 11.47Q3.18 12.18 4.23 12.18L4.23 12.18L4.23 12.18Q5.04 12.18 5.54 11.81L5.54 11.81L5.54 11.81Q6.03 11.44 6.19 10.74L6.19 10.74L7.22 11.10L7.22 11.10Q6.86 12.08 6.10 12.62L6.10 12.62L6.10 12.62Q5.35 13.16 4.26 13.16L4.26 13.16L4.26 13.16Q2.67 13.16 1.77 12.19L1.77 12.19L1.77 12.19Q0.87 11.23 0.87 9.52L0.87 9.52L0.87 9.52Q0.87 7.81 1.77 6.85L1.77 6.85L1.77 6.85Q2.67 5.88 4.26 5.88L4.26 5.88ZM14.14 6.02L15.26 6.02L15.26 13.02L14.28 13.02L14.21 11.96L14.21 11.96Q13.51 13.16 11.70 13.16L11.70 13.16L11.70 13.16Q10.57 13.16 9.85 12.53L9.85 12.53L9.85 12.53Q9.13 11.90 9.13 10.60L9.13 10.60L9.13 6.02L10.25 6.02L10.25 10.30L10.25 10.30Q10.25 11.33 10.67 11.75L10.67 11.75L10.67 11.75Q11.09 12.18 11.90 12.18L11.90 12.18L11.90 12.18Q12.87 12.18 13.50 11.59L13.50 11.59L13.50 11.59Q14.14 11.00 14.14 9.83L14.14 9.83L14.14 6.02ZM18.93 2.80L18.93 11.14L18.93 11.14Q18.93 11.68 19.09 11.88L19.09 11.88L19.09 11.88Q19.25 12.08 19.68 12.08L19.68 12.08L19.68 12.08Q19.98 12.08 20.20 12.04L20.20 12.04L20.20 12.04Q20.41 12.00 20.71 11.89L20.71 11.89L20.52 12.96L20.52 12.96Q20.06 13.16 19.49 13.16L19.49 13.16L19.49 13.16Q18.63 13.16 18.22 12.70L18.22 12.70L18.22 12.70Q17.81 12.24 17.81 11.28L17.81 11.28L17.81 2.80L18.93 2.80ZM25.76 11.59L26.15 12.53L26.15 12.53Q25.45 13.16 24.35 13.16L24.35 13.16L24.35 13.16Q23.49 13.16 22.95 12.70L22.95 12.70L22.95 12.70Q22.41 12.24 22.40 11.28L22.40 11.28L22.40 6.99L21 6.99L21 6.02L22.40 6.02L22.40 4.34L23.52 4.03L23.52 6.02L26.11 6.02L26.11 6.99L23.52 6.99L23.52 11.09L23.52 11.09Q23.52 11.59 23.81 11.85L23.81 11.85L23.81 11.85Q24.09 12.11 24.57 12.11L24.57 12.11L24.57 12.11Q25.24 12.11 25.76 11.59L25.76 11.59ZM28.29 4.68L28.29 4.68Q27.92 4.68 27.68 4.44L27.68 4.44L27.68 4.44Q27.45 4.21 27.45 3.84L27.45 3.84L27.45 3.84Q27.45 3.46 27.68 3.23L27.68 3.23L27.68 3.23Q27.92 3.00 28.29 3.00L28.29 3.00L28.29 3.00Q28.67 3.00 28.90 3.23L28.90 3.23L28.90 3.23Q29.13 3.46 29.13 3.84L29.13 3.84L29.13 3.84Q29.13 4.21 28.90 4.44L28.90 4.44L28.90 4.44Q28.67 4.68 28.29 4.68L28.29 4.68ZM28.85 6.02L28.85 13.02L27.73 13.02L27.73 6.02L28.85 6.02ZM36.09 6.02L37.27 6.02L34.36 13.02L33.24 13.02L30.32 6.02L31.60 6.02L33.81 11.89L36.09 6.02ZM44.30 12.21L44.30 12.21Q44.58 12.21 44.86 12.14L44.86 12.14L44.79 13.02L44.79 13.02Q44.39 13.16 43.95 13.16L43.95 13.16L43.95 13.16Q43.40 13.16 43.09 12.92L43.09 12.92L43.09 12.92Q42.77 12.68 42.69 12.12L42.69 12.12L42.69 12.12Q42.36 12.61 41.74 12.89L41.74 12.89L41.74 12.89Q41.12 13.16 40.43 13.16L40.43 13.16L40.43 13.16Q39.40 13.16 38.72 12.68L38.72 12.68L38.72 12.68Q38.05 12.19 38.05 11.28L38.05 11.28L38.05 11.28Q38.05 10.49 38.75 9.90L38.75 9.90L38.75 9.90Q39.45 9.32 40.78 9.10L40.78 9.10L42.64 8.79L42.64 8.40L42.64 8.40Q42.64 7.70 42.21 7.28L42.21 7.28L42.21 7.28Q41.78 6.86 41.01 6.86L41.01 6.86L41.01 6.86Q40.31 6.86 39.79 7.20L39.79 7.20L39.79 7.20Q39.28 7.53 39.00 8.19L39.00 8.19L38.18 7.59L38.18 7.59Q38.46 6.80 39.22 6.34L39.22 6.34L39.22 6.34Q39.98 5.88 41.01 5.88L41.01 5.88L41.01 5.88Q42.25 5.88 43.01 6.48L43.01 6.48L43.01 6.48Q43.76 7.08 43.76 8.26L43.76 8.26L43.76 11.70L43.76 11.70Q43.76 11.96 43.89 12.08L43.89 12.08L43.89 12.08Q44.02 12.21 44.30 12.21L44.30 12.21ZM40.49 12.18L40.49 12.18Q41.37 12.18 42.01 11.76L42.01 11.76L42.01 11.76Q42.64 11.34 42.64 10.67L42.64 10.67L42.64 9.70L41.08 10.00L41.08 10.00Q40.14 10.16 39.68 10.48L39.68 10.48L39.68 10.48Q39.21 10.79 39.21 11.28L39.21 11.28L39.21 11.28Q39.21 11.72 39.55 11.95L39.55 11.95L39.55 11.95Q39.89 12.18 40.49 12.18L40.49 12.18ZM50.09 11.59L50.48 12.53L50.48 12.53Q49.78 13.16 48.68 13.16L48.68 13.16L48.68 13.16Q47.82 13.16 47.28 12.70L47.28 12.70L47.28 12.70Q46.75 12.24 46.73 11.28L46.73 11.28L46.73 6.99L45.33 6.99L45.33 6.02L46.73 6.02L46.73 4.34L47.85 4.03L47.85 6.02L50.44 6.02L50.44 6.99L47.85 6.99L47.85 11.09L47.85 11.09Q47.85 11.59 48.14 11.85L48.14 11.85L48.14 11.85Q48.43 12.11 48.90 12.11L48.90 12.11L48.90 12.11Q49.57 12.11 50.09 11.59L50.09 11.59ZM52.63 4.68L52.63 4.68Q52.25 4.68 52.02 4.44L52.02 4.44L52.02 4.44Q51.79 4.21 51.79 3.84L51.79 3.84L51.79 3.84Q51.79 3.46 52.02 3.23L52.02 3.23L52.02 3.23Q52.25 3.00 52.63 3.00L52.63 3.00L52.63 3.00Q53.00 3.00 53.23 3.23L53.23 3.23L53.23 3.23Q53.47 3.46 53.47 3.84L53.47 3.84L53.47 3.84Q53.47 4.21 53.23 4.44L53.23 4.44L53.23 4.44Q53.00 4.68 52.63 4.68L52.63 4.68ZM53.19 6.02L53.19 13.02L52.07 13.02L52.07 6.02L53.19 6.02ZM59.19 5.88L59.19 5.88Q60.38 5.88 61.15 6.57L61.15 6.57L61.15 6.57Q61.92 7.25 61.92 8.54L61.92 8.54L61.92 13.02L60.80 13.02L60.80 8.93L60.80 8.93Q60.80 7.84 60.33 7.35L60.33 7.35L60.33 7.35Q59.86 6.86 59.08 6.86L59.08 6.86L59.08 6.86Q58.52 6.86 58.03 7.10L58.03 7.10L58.03 7.10Q57.54 7.35 57.23 7.90L57.23 7.90L57.23 7.90Q56.91 8.46 56.91 9.30L56.91 9.30L56.91 13.02L55.79 13.02L55.79 6.02L56.77 6.02L56.84 7.11L56.84 7.11Q57.19 6.48 57.81 6.18L57.81 6.18L57.81 6.18Q58.42 5.88 59.19 5.88L59.19 5.88ZM68.36 12.12L68.36 12.12Q69.36 12.12 69.92 12.57L69.92 12.57L69.92 12.57Q70.48 13.02 70.48 13.79L70.48 13.79L70.48 13.79Q70.48 14.46 70.01 14.97L70.01 14.97L70.01 14.97Q69.55 15.48 68.76 15.76L68.76 15.76L68.76 15.76Q67.97 16.03 67.02 16.03L67.02 16.03L67.02 16.03Q65.42 16.03 64.61 15.52L64.61 15.52L64.61 15.52Q63.80 15.01 63.80 14.18L63.80 14.18L63.80 14.18Q63.80 13.71 64.13 13.34L64.13 13.34L64.13 13.34Q64.46 12.98 65.03 12.82L65.03 12.82L65.03 12.82Q64.60 12.61 64.34 12.29L64.34 12.29L64.34 12.29Q64.08 11.97 64.08 11.54L64.08 11.54L64.08 11.54Q64.08 11.02 64.36 10.67L64.36 10.67L64.36 10.67Q64.64 10.33 65.13 10.16L65.13 10.16L65.13 10.16Q64.62 9.86 64.36 9.36L64.36 9.36L64.36 9.36Q64.11 8.86 64.11 8.25L64.11 8.25L64.11 8.25Q64.11 7.56 64.47 7.02L64.47 7.02L64.47 7.02Q64.83 6.48 65.49 6.18L65.49 6.18L65.49 6.18Q66.15 5.88 66.98 5.88L66.98 5.88L66.98 5.88Q67.76 5.88 68.40 6.16L68.40 6.16L68.40 6.16Q68.80 4.73 70.38 4.73L70.38 4.73L70.63 5.71L70.63 5.71Q69.26 5.71 68.96 6.48L68.96 6.48L68.96 6.48Q69.38 6.80 69.61 7.25L69.61 7.25L69.61 7.25Q69.85 7.70 69.85 8.25L69.85 8.25L69.85 8.25Q69.85 8.93 69.48 9.47L69.48 9.47L69.48 9.47Q69.12 10.01 68.46 10.31L68.46 10.31L68.46 10.31Q67.80 10.61 66.98 10.61L66.98 10.61L66.98 10.61Q66.36 10.61 65.90 10.49L65.90 10.49L65.90 10.49Q65.48 10.58 65.30 10.79L65.30 10.79L65.30 10.79Q65.11 11.00 65.11 11.37L65.11 11.37L65.11 11.37Q65.11 11.73 65.37 11.93L65.37 11.93L65.37 11.93Q65.62 12.12 66.04 12.12L66.04 12.12L68.36 12.12ZM66.98 6.79L66.98 6.79Q66.25 6.79 65.76 7.20L65.76 7.20L65.76 7.20Q65.27 7.60 65.27 8.25L65.27 8.25L65.27 8.25Q65.27 8.89 65.76 9.30L65.76 9.30L65.76 9.30Q66.25 9.70 66.98 9.70L66.98 9.70L66.98 9.70Q67.70 9.70 68.19 9.30L68.19 9.30L68.19 9.30Q68.68 8.89 68.68 8.25L68.68 8.25L68.68 8.25Q68.68 7.60 68.19 7.20L68.19 7.20L68.19 7.20Q67.70 6.79 66.98 6.79L66.98 6.79ZM67.14 15.09L67.14 15.09Q68.21 15.09 68.82 14.75L68.82 14.75L68.82 14.75Q69.44 14.41 69.44 13.92L69.44 13.92L69.44 13.92Q69.44 13.51 69.13 13.30L69.13 13.30L69.13 13.30Q68.81 13.09 68.05 13.09L68.05 13.09L66.18 13.09L66.18 13.09Q65.53 13.09 65.18 13.32L65.18 13.32L65.18 13.32Q64.83 13.55 64.83 13.96L64.83 13.96L64.83 13.96Q64.83 14.49 65.42 14.79L65.42 14.79L65.42 14.79Q66.01 15.09 67.14 15.09L67.14 15.09ZM79.87 5.88L79.87 5.88Q80.92 5.88 81.64 6.36L81.64 6.36L81.64 6.36Q82.36 6.85 82.77 7.74L82.77 7.74L81.70 8.25L81.70 8.25Q81.26 6.86 79.84 6.86L79.84 6.86L79.84 6.86Q78.79 6.86 78.20 7.57L78.20 7.57L78.20 7.57Q77.60 8.27 77.60 9.52L77.60 9.52L77.60 9.52Q77.60 10.77 78.20 11.47L78.20 11.47L78.20 11.47Q78.79 12.18 79.84 12.18L79.84 12.18L79.84 12.18Q80.65 12.18 81.15 11.81L81.15 11.81L81.15 11.81Q81.65 11.44 81.80 10.74L81.80 10.74L82.84 11.10L82.84 11.10Q82.47 12.08 81.72 12.62L81.72 12.62L81.72 12.62Q80.96 13.16 79.87 13.16L79.87 13.16L79.87 13.16Q78.29 13.16 77.39 12.19L77.39 12.19L77.39 12.19Q76.48 11.23 76.48 9.52L76.48 9.52L76.48 9.52Q76.48 7.81 77.39 6.85L77.39 6.85L77.39 6.85Q78.29 5.88 79.87 5.88L79.87 5.88ZM87.77 5.88L87.77 5.88Q89.35 5.88 90.25 6.85L90.25 6.85L90.25 6.85Q91.15 7.81 91.15 9.52L91.15 9.52L91.15 9.52Q91.15 11.23 90.25 12.19L90.25 12.19L90.25 12.19Q89.35 13.16 87.77 13.16L87.77 13.16L87.77 13.16Q86.18 13.16 85.28 12.19L85.28 12.19L85.28 12.19Q84.38 11.23 84.38 9.52L84.38 9.52L84.38 9.52Q84.38 7.81 85.28 6.85L85.28 6.85L85.28 6.85Q86.18 5.88 87.77 5.88L87.77 5.88ZM87.77 6.85L87.77 6.85Q86.70 6.85 86.10 7.56L86.10 7.56L86.10 7.56Q85.50 8.27 85.50 9.52L85.50 9.52L85.50 9.52Q85.50 10.77 86.10 11.48L86.10 11.48L86.10 11.48Q86.70 12.19 87.77 12.19L87.77 12.19L87.77 12.19Q88.83 12.19 89.43 11.48L89.43 11.48L89.43 11.48Q90.03 10.77 90.03 9.52L90.03 9.52L90.03 9.52Q90.03 8.27 89.43 7.56L89.43 7.56L89.43 7.56Q88.83 6.85 87.77 6.85L87.77 6.85ZM96.73 5.88L96.73 5.88Q97.92 5.88 98.69 6.57L98.69 6.57L98.69 6.57Q99.46 7.25 99.46 8.54L99.46 8.54L99.46 13.02L98.34 13.02L98.34 8.93L98.34 8.93Q98.34 7.84 97.87 7.35L97.87 7.35L97.87 7.35Q97.40 6.86 96.61 6.86L96.61 6.86L96.61 6.86Q96.05 6.86 95.56 7.10L95.56 7.10L95.56 7.10Q95.07 7.35 94.76 7.90L94.76 7.90L94.76 7.90Q94.44 8.46 94.44 9.30L94.44 9.30L94.44 13.02L93.32 13.02L93.32 6.02L94.30 6.02L94.37 7.11L94.37 7.11Q94.72 6.48 95.34 6.18L95.34 6.18L95.34 6.18Q95.96 5.88 96.73 5.88L96.73 5.88ZM104.37 13.16L104.37 13.16Q103.36 13.16 102.55 12.76L102.55 12.76L102.55 12.76Q101.74 12.36 101.36 11.58L101.36 11.58L102.27 10.95L102.27 10.95Q102.51 11.56 103.10 11.87L103.10 11.87L103.10 11.87Q103.68 12.18 104.48 12.18L104.48 12.18L104.48 12.18Q105.31 12.18 105.74 11.89L105.74 11.89L105.74 11.89Q106.18 11.59 106.18 11.14L106.18 11.14L106.18 11.14Q106.18 10.74 105.77 10.49L105.77 10.49L105.77 10.49Q105.36 10.25 104.34 10.07L104.34 10.07L104.34 10.07Q103.33 9.88 102.75 9.63L102.75 9.63L102.75 9.63Q102.16 9.37 101.89 8.97L101.89 8.97L101.89 8.97Q101.63 8.57 101.63 7.98L101.63 7.98L101.63 7.98Q101.63 7.41 101.96 6.93L101.96 6.93L101.96 6.93Q102.30 6.45 102.93 6.17L102.93 6.17L102.93 6.17Q103.56 5.88 104.38 5.88L104.38 5.88L104.38 5.88Q105.50 5.88 106.18 6.29L106.18 6.29L106.18 6.29Q106.86 6.71 107.16 7.56L107.16 7.56L106.20 8.12L106.20 8.12Q105.98 7.45 105.53 7.15L105.53 7.15L105.53 7.15Q105.07 6.86 104.38 6.86L104.38 6.86L104.38 6.86Q103.70 6.86 103.22 7.17L103.22 7.17L103.22 7.17Q102.75 7.48 102.75 7.88L102.75 7.88L102.75 7.88Q102.75 8.34 103.16 8.60L103.16 8.60L103.16 8.60Q103.57 8.85 104.64 9.03L104.64 9.03L104.64 9.03Q106.09 9.27 106.69 9.74L106.69 9.74L106.69 9.74Q107.30 10.22 107.30 11.09L107.30 11.09L107.30 11.09Q107.30 11.69 106.94 12.16L106.94 12.16L106.94 12.16Q106.58 12.63 105.92 12.89L105.92 12.89L105.92 12.89Q105.25 13.16 104.37 13.16L104.37 13.16ZM112.32 5.88L112.32 5.88Q113.37 5.88 114.09 6.36L114.09 6.36L114.09 6.36Q114.81 6.85 115.22 7.74L115.22 7.74L114.16 8.25L114.16 8.25Q113.71 6.86 112.29 6.86L112.29 6.86L112.29 6.86Q111.24 6.86 110.65 7.57L110.65 7.57L110.65 7.57Q110.05 8.27 110.05 9.52L110.05 9.52L110.05 9.52Q110.05 10.77 110.65 11.47L110.65 11.47L110.65 11.47Q111.24 12.18 112.29 12.18L112.29 12.18L112.29 12.18Q113.11 12.18 113.60 11.81L113.60 11.81L113.60 11.81Q114.10 11.44 114.25 10.74L114.25 10.74L115.29 11.10L115.29 11.10Q114.93 12.08 114.17 12.62L114.17 12.62L114.17 12.62Q113.41 13.16 112.32 13.16L112.32 13.16L112.32 13.16Q110.74 13.16 109.84 12.19L109.84 12.19L109.84 12.19Q108.93 11.23 108.93 9.52L108.93 9.52L108.93 9.52Q108.93 7.81 109.84 6.85L109.84 6.85L109.84 6.85Q110.74 5.88 112.32 5.88L112.32 5.88ZM117.82 4.68L117.82 4.68Q117.45 4.68 117.22 4.44L117.22 4.44L117.22 4.44Q116.98 4.21 116.98 3.84L116.98 3.84L116.98 3.84Q116.98 3.46 117.22 3.23L117.22 3.23L117.22 3.23Q117.45 3.00 117.82 3.00L117.82 3.00L117.82 3.00Q118.20 3.00 118.43 3.23L118.43 3.23L118.43 3.23Q118.66 3.46 118.66 3.84L118.66 3.84L118.66 3.84Q118.66 4.21 118.43 4.44L118.43 4.44L118.43 4.44Q118.20 4.68 117.82 4.68L117.82 4.68ZM118.38 6.02L118.38 13.02L117.26 13.02L117.26 6.02L118.38 6.02ZM123.94 5.88L123.94 5.88Q125.52 5.88 126.43 6.85L126.43 6.85L126.43 6.85Q127.33 7.81 127.33 9.52L127.33 9.52L127.33 9.52Q127.33 11.23 126.43 12.19L126.43 12.19L126.43 12.19Q125.52 13.16 123.94 13.16L123.94 13.16L123.94 13.16Q122.36 13.16 121.46 12.19L121.46 12.19L121.46 12.19Q120.55 11.23 120.55 9.52L120.55 9.52L120.55 9.52Q120.55 7.81 121.46 6.85L121.46 6.85L121.46 6.85Q122.36 5.88 123.94 5.88L123.94 5.88ZM123.94 6.85L123.94 6.85Q122.88 6.85 122.28 7.56L122.28 7.56L122.28 7.56Q121.67 8.27 121.67 9.52L121.67 9.52L121.67 9.52Q121.67 10.77 122.28 11.48L122.28 11.48L122.28 11.48Q122.88 12.19 123.94 12.19L123.94 12.19L123.94 12.19Q125.01 12.19 125.61 11.48L125.61 11.48L125.61 11.48Q126.21 10.77 126.21 9.52L126.21 9.52L126.21 9.52Q126.21 8.27 125.61 7.56L125.61 7.56L125.61 7.56Q125.01 6.85 123.94 6.85L123.94 6.85ZM134.44 6.02L135.56 6.02L135.56 13.02L134.58 13.02L134.51 11.96L134.51 11.96Q133.81 13.16 132.01 13.16L132.01 13.16L132.01 13.16Q130.87 13.16 130.15 12.53L130.15 12.53L130.15 12.53Q129.43 11.90 129.43 10.60L129.43 10.60L129.43 6.02L130.55 6.02L130.55 10.30L130.55 10.30Q130.55 11.33 130.97 11.75L130.97 11.75L130.97 11.75Q131.39 12.18 132.20 12.18L132.20 12.18L132.20 12.18Q133.17 12.18 133.81 11.59L133.81 11.59L133.81 11.59Q134.44 11.00 134.44 9.83L134.44 9.83L134.44 6.02ZM140.55 13.16L140.55 13.16Q139.54 13.16 138.73 12.76L138.73 12.76L138.73 12.76Q137.91 12.36 137.54 11.58L137.54 11.58L138.45 10.95L138.45 10.95Q138.68 11.56 139.27 11.87L139.27 11.87L139.27 11.87Q139.86 12.18 140.66 12.18L140.66 12.18L140.66 12.18Q141.48 12.18 141.92 11.89L141.92 11.89L141.92 11.89Q142.35 11.59 142.35 11.14L142.35 11.14L142.35 11.14Q142.35 10.74 141.95 10.49L141.95 10.49L141.95 10.49Q141.54 10.25 140.52 10.07L140.52 10.07L140.52 10.07Q139.51 9.88 138.92 9.63L138.92 9.63L138.92 9.63Q138.33 9.37 138.07 8.97L138.07 8.97L138.07 8.97Q137.80 8.57 137.80 7.98L137.80 7.98L137.80 7.98Q137.80 7.41 138.14 6.93L138.14 6.93L138.14 6.93Q138.47 6.45 139.10 6.17L139.10 6.17L139.10 6.17Q139.73 5.88 140.56 5.88L140.56 5.88L140.56 5.88Q141.68 5.88 142.36 6.29L142.36 6.29L142.36 6.29Q143.04 6.71 143.33 7.56L143.33 7.56L142.38 8.12L142.38 8.12Q142.16 7.45 141.70 7.15L141.70 7.15L141.70 7.15Q141.25 6.86 140.56 6.86L140.56 6.86L140.56 6.86Q139.87 6.86 139.40 7.17L139.40 7.17L139.40 7.17Q138.92 7.48 138.92 7.88L138.92 7.88L138.92 7.88Q138.92 8.34 139.34 8.60L139.34 8.60L139.34 8.60Q139.75 8.85 140.81 9.03L140.81 9.03L140.81 9.03Q142.27 9.27 142.87 9.74L142.87 9.74L142.87 9.74Q143.47 10.22 143.47 11.09L143.47 11.09L143.47 11.09Q143.47 11.69 143.12 12.16L143.12 12.16L143.12 12.16Q142.76 12.63 142.09 12.89L142.09 12.89L142.09 12.89Q141.43 13.16 140.55 13.16L140.55 13.16ZM148.95 5.88L148.95 5.88Q150.14 5.88 150.91 6.57L150.91 6.57L150.91 6.57Q151.68 7.25 151.68 8.54L151.68 8.54L151.68 13.02L150.56 13.02L150.56 8.93L150.56 8.93Q150.56 7.84 150.09 7.35L150.09 7.35L150.09 7.35Q149.62 6.86 148.83 6.86L148.83 6.86L148.83 6.86Q148.27 6.86 147.78 7.10L147.78 7.10L147.78 7.10Q147.29 7.35 146.98 7.90L146.98 7.90L146.98 7.90Q146.66 8.46 146.66 9.30L146.66 9.30L146.66 13.02L145.54 13.02L145.54 6.02L146.52 6.02L146.59 7.11L146.59 7.11Q146.94 6.48 147.56 6.18L147.56 6.18L147.56 6.18Q148.18 5.88 148.95 5.88L148.95 5.88ZM160.22 9.16L160.22 9.16Q160.22 9.55 160.16 9.94L160.16 9.94L154.88 9.94L154.88 9.94Q154.98 11.00 155.59 11.59L155.59 11.59L155.59 11.59Q156.20 12.18 157.16 12.18L157.16 12.18L157.16 12.18Q157.93 12.18 158.45 11.91L158.45 11.91L158.45 11.91Q158.96 11.65 159.14 11.14L159.14 11.14L160.08 11.63L160.08 11.63Q159.66 12.38 158.96 12.77L158.96 12.77L158.96 12.77Q158.26 13.16 157.16 13.16L157.16 13.16L157.16 13.16Q155.58 13.16 154.68 12.19L154.68 12.19L154.68 12.19Q153.78 11.23 153.78 9.52L153.78 9.52L153.78 9.52Q153.78 7.81 154.64 6.85L154.64 6.85L154.64 6.85Q155.50 5.88 157.08 5.88L157.08 5.88L157.08 5.88Q158.06 5.88 158.77 6.31L158.77 6.31L158.77 6.31Q159.49 6.75 159.85 7.49L159.85 7.49L159.85 7.49Q160.22 8.23 160.22 9.16L160.22 9.16ZM157.08 6.86L157.08 6.86Q156.16 6.86 155.59 7.41L155.59 7.41L155.59 7.41Q155.02 7.95 154.90 8.95L154.90 8.95L159.14 8.95L159.14 8.95Q159.03 7.97 158.49 7.41L158.49 7.41L158.49 7.41Q157.96 6.86 157.08 6.86L157.08 6.86ZM164.72 13.16L164.72 13.16Q163.72 13.16 162.90 12.76L162.90 12.76L162.90 12.76Q162.09 12.36 161.71 11.58L161.71 11.58L162.62 10.95L162.62 10.95Q162.86 11.56 163.45 11.87L163.45 11.87L163.45 11.87Q164.04 12.18 164.84 12.18L164.84 12.18L164.84 12.18Q165.66 12.18 166.10 11.89L166.10 11.89L166.10 11.89Q166.53 11.59 166.53 11.14L166.53 11.14L166.53 11.14Q166.53 10.74 166.12 10.49L166.12 10.49L166.12 10.49Q165.72 10.25 164.70 10.07L164.70 10.07L164.70 10.07Q163.69 9.88 163.10 9.63L163.10 9.63L163.10 9.63Q162.51 9.37 162.25 8.97L162.25 8.97L162.25 8.97Q161.98 8.57 161.98 7.98L161.98 7.98L161.98 7.98Q161.98 7.41 162.32 6.93L162.32 6.93L162.32 6.93Q162.65 6.45 163.28 6.17L163.28 6.17L163.28 6.17Q163.91 5.88 164.74 5.88L164.74 5.88L164.74 5.88Q165.86 5.88 166.54 6.29L166.54 6.29L166.54 6.29Q167.22 6.71 167.51 7.56L167.51 7.56L166.56 8.12L166.56 8.12Q166.33 7.45 165.88 7.15L165.88 7.15L165.88 7.15Q165.42 6.86 164.74 6.86L164.74 6.86L164.74 6.86Q164.05 6.86 163.58 7.17L163.58 7.17L163.58 7.17Q163.10 7.48 163.10 7.88L163.10 7.88L163.10 7.88Q163.10 8.34 163.51 8.60L163.51 8.60L163.51 8.60Q163.93 8.85 164.99 9.03L164.99 9.03L164.99 9.03Q166.45 9.27 167.05 9.74L167.05 9.74L167.05 9.74Q167.65 10.22 167.65 11.09L167.65 11.09L167.65 11.09Q167.65 11.69 167.29 12.16L167.29 12.16L167.29 12.16Q166.94 12.63 166.27 12.89L166.27 12.89L166.27 12.89Q165.61 13.16 164.72 13.16L164.72 13.16ZM172.10 13.16L172.10 13.16Q171.09 13.16 170.28 12.76L170.28 12.76L170.28 12.76Q169.47 12.36 169.09 11.58L169.09 11.58L170.00 10.95L170.00 10.95Q170.24 11.56 170.83 11.87L170.83 11.87L170.83 11.87Q171.42 12.18 172.21 12.18L172.21 12.18L172.21 12.18Q173.04 12.18 173.47 11.89L173.47 11.89L173.47 11.89Q173.91 11.59 173.91 11.14L173.91 11.14L173.91 11.14Q173.91 10.74 173.50 10.49L173.50 10.49L173.50 10.49Q173.10 10.25 172.07 10.07L172.07 10.07L172.07 10.07Q171.07 9.88 170.48 9.63L170.48 9.63L170.48 9.63Q169.89 9.37 169.62 8.97L169.62 8.97L169.62 8.97Q169.36 8.57 169.36 7.98L169.36 7.98L169.36 7.98Q169.36 7.41 169.69 6.93L169.69 6.93L169.69 6.93Q170.03 6.45 170.66 6.17L170.66 6.17L170.66 6.17Q171.29 5.88 172.12 5.88L172.12 5.88L172.12 5.88Q173.24 5.88 173.92 6.29L173.92 6.29L173.92 6.29Q174.59 6.71 174.89 7.56L174.89 7.56L173.94 8.12L173.94 8.12Q173.71 7.45 173.26 7.15L173.26 7.15L173.26 7.15Q172.80 6.86 172.12 6.86L172.12 6.86L172.12 6.86Q171.43 6.86 170.95 7.17L170.95 7.17L170.95 7.17Q170.48 7.48 170.48 7.88L170.48 7.88L170.48 7.88Q170.48 8.34 170.89 8.60L170.89 8.60L170.89 8.60Q171.30 8.85 172.37 9.03L172.37 9.03L172.37 9.03Q173.82 9.27 174.43 9.74L174.43 9.74L174.43 9.74Q175.03 10.22 175.03 11.09L175.03 11.09L175.03 11.09Q175.03 11.69 174.67 12.16L174.67 12.16L174.67 12.16Q174.31 12.63 173.65 12.89L173.65 12.89L173.65 12.89Q172.98 13.16 172.10 13.16L172.10 13.16Z"></path></g></svg>